<svg xmlns="http://www.w3.org/2000/svg" xmlns:xlink="http://www.w3.org/1999/xlink" width="500" zoomAndPan="magnify" viewBox="0 0 375 374.999991" height="500" preserveAspectRatio="xMidYMid meet" version="1.0"><defs><clipPath id="da106a67b6"><path d="M 92 127 L 328.15625 127 L 328.15625 328.15625 L 92 328.15625 Z M 92 127 " clip-rule="nonzero"/></clipPath><clipPath id="fea0a7c49a"><path d="M 46.90625 46.90625 L 283 46.90625 L 283 248 L 46.90625 248 Z M 46.90625 46.90625 " clip-rule="nonzero"/></clipPath></defs><g clip-path="url(#da106a67b6)"><path fill="#000000" d="M 314.765625 127.773438 C 315.546875 129.363281 316.292969 131.097656 317.011719 132.792969 C 321.421875 143.214844 324.519531 154.011719 326.292969 165.09375 C 327.472656 172.453125 328.0625 179.933594 328.0625 187.5 C 328.0625 206.46875 324.347656 224.878906 317.011719 242.222656 C 309.929688 258.964844 299.792969 274 286.890625 286.902344 C 273.988281 299.804688 258.957031 309.945312 242.21875 317.027344 C 224.875 324.363281 206.464844 328.089844 187.496094 328.089844 C 168.527344 328.089844 150.117188 324.398438 132.773438 317.0625 C 117.726562 310.695312 104.0625 301.949219 92.078125 290.824219 L 187.492188 290.824219 C 244.410156 290.824219 290.710938 244.425781 290.710938 187.511719 C 290.710938 179.820312 289.863281 172.285156 288.261719 165.015625 L 187.5 165.015625 L 187.5 165.089844 C 174.964844 165.09375 164.960938 175.253906 164.960938 187.644531 C 164.960938 200.039062 175.0625 210.203125 187.492188 210.203125 L 242.992188 210.203125 C 240.019531 217.46875 235.582031 224.179688 229.824219 229.9375 C 218.515625 241.242188 203.480469 247.390625 187.492188 247.390625 C 171.5 247.390625 156.464844 241.175781 145.164062 229.894531 C 133.851562 218.597656 127.617188 203.566406 127.617188 187.570312 C 127.617188 171.574219 133.855469 156.546875 145.175781 145.25 C 156.480469 133.964844 171.511719 127.769531 187.507812 127.769531 Z M 314.765625 127.773438 " fill-opacity="1" fill-rule="nonzero"/></g><g clip-path="url(#fea0a7c49a)"><path fill="#000000" d="M 46.933594 187.507812 C 46.933594 168.539062 50.652344 150.113281 57.988281 132.773438 C 65.070312 116.035156 75.203125 100.996094 88.105469 88.09375 C 101.007812 75.191406 116.039062 65.050781 132.78125 57.972656 C 150.125 50.640625 168.535156 46.90625 187.5 46.90625 C 206.46875 46.90625 224.878906 50.601562 242.222656 57.9375 C 257.269531 64.300781 270.9375 73.046875 282.921875 84.175781 L 187.5 84.175781 C 130.582031 84.175781 84.28125 130.5625 84.28125 187.480469 C 84.28125 209.792969 91.394531 230.425781 103.484375 247.453125 L 60.304688 247.453125 C 59.503906 245.640625 58.726562 243.996094 57.992188 242.253906 C 50.652344 224.902344 46.933594 206.480469 46.933594 187.507812 Z M 46.933594 187.507812 " fill-opacity="1" fill-rule="nonzero"/></g></svg>